<?xml version="1.0" standalone="no"?>
<!DOCTYPE svg PUBLIC "-//W3C//DTD SVG 20010904//EN"
 "http://www.w3.org/TR/2001/REC-SVG-20010904/DTD/svg10.dtd">
<svg version="1.0" xmlns="http://www.w3.org/2000/svg"
 width="1254.000000pt" height="1254.000000pt" viewBox="0 0 1254.000000 1254.000000"
 preserveAspectRatio="xMidYMid meet">

<g transform="translate(0.000000,1254.000000) scale(0.100000,-0.100000)"
fill="#2a8eda" stroke="none">
<path d="M2122 10036 c-202 -49 -366 -208 -429 -414 -17 -54 -18 -229 -20
-2969 l-3 -2913 -243 0 c-211 0 -246 -2 -276 -18 -64 -32 -76 -60 -79 -185
-16 -504 223 -862 646 -970 l87 -22 4530 0 4530 0 79 23 c131 38 230 95 322
187 184 183 259 402 252 735 -3 142 -5 162 -24 187 -44 60 -62 63 -356 63
l-268 0 -2 2913 c-3 2771 -4 2915 -21 2972 -54 181 -198 332 -379 397 l-63 23
-4115 2 c-3320 1 -4125 -1 -4168 -11z m8236 -261 c81 -9 170 -75 215 -160 l22
-40 3 -2917 2 -2918 -52 0 c-29 0 -638 -1 -1353 -3 l-1300 -2 -42 -22 c-28
-16 -66 -54 -118 -123 l-77 -100 -1392 2 -1391 3 -75 100 c-120 158 75 140
-1502 143 l-1358 2 0 2893 c0 3245 -7 2953 76 3047 82 90 97 94 339 100 271 6
7946 2 8003 -5z m-5734 -6421 c54 -72 91 -111 117 -125 37 -19 72 -19 1519
-19 1233 0 1486 2 1514 14 21 9 62 50 116 117 46 57 89 107 94 111 14 10 3238
10 3252 0 17 -11 -1 -216 -25 -285 -66 -187 -201 -311 -367 -337 -48 -7 -1427
-10 -4544 -8 -4218 3 -4478 4 -4533 20 -189 58 -324 188 -381 368 -25 79 -43
208 -33 235 6 13 171 15 1599 15 l1593 0 79 -106z"/>
<path d="M8508 9334 c-15 -8 -32 -23 -38 -34 -6 -12 -10 -157 -10 -394 0 -207
-3 -376 -8 -376 -4 0 -68 61 -142 135 -88 89 -144 136 -163 141 -59 13 -117
-37 -117 -102 0 -21 22 -47 103 -123 56 -52 147 -140 202 -193 l100 -98 -55
-52 c-30 -28 -121 -117 -202 -196 -156 -152 -166 -169 -137 -224 14 -26 74
-51 102 -42 12 3 83 67 158 140 75 74 142 134 148 134 8 0 11 -113 11 -394 l0
-395 24 -28 c19 -22 32 -28 64 -28 38 0 48 7 134 91 51 49 179 172 283 272
l190 183 0 48 0 48 -135 129 c-74 71 -178 170 -230 221 l-95 92 165 158 c298
284 300 286 300 321 0 17 -5 41 -11 54 -11 21 -315 311 -489 466 -76 66 -101
74 -152 46z m287 -416 c72 -67 130 -126 130 -132 0 -11 -257 -266 -269 -266
-3 0 -6 117 -6 260 0 143 3 260 8 260 4 0 66 -55 137 -122z m-51 -937 c44 -43
106 -101 137 -128 l57 -51 -77 -73 c-42 -41 -106 -103 -143 -139 l-68 -64 0
267 c0 147 3 267 6 267 4 0 43 -35 88 -79z"/>
<path d="M9658 8771 c-44 -39 -44 -84 0 -145 141 -196 135 -464 -14 -683 -76
-112 70 -214 158 -109 32 38 96 170 120 246 19 64 23 96 23 215 -1 132 -3 146
-33 235 -37 107 -99 218 -138 249 -37 29 -77 27 -116 -8z"/>
<path d="M5910 8689 c-424 -89 -754 -416 -841 -834 -16 -78 -19 -137 -19 -432
l0 -341 -67 -6 c-217 -20 -391 -130 -481 -304 -77 -148 -72 -75 -72 -1141 0
-616 4 -972 11 -1001 5 -25 28 -83 51 -130 71 -148 212 -260 378 -301 45 -11
270 -14 1210 -14 l1155 0 74 24 c182 60 332 213 388 396 17 56 18 119 18 1015
0 903 -1 959 -19 1025 -51 190 -200 351 -374 405 -35 11 -81 20 -102 20 -21 0
-50 4 -64 10 l-26 10 0 349 c0 269 -3 367 -15 428 -80 422 -402 749 -815 827
-112 22 -273 19 -390 -5z m377 -275 c266 -59 482 -279 553 -560 19 -73 20
-106 18 -429 l-3 -350 -750 0 c-412 0 -758 1 -768 4 -18 4 -18 21 -14 350 5
398 7 414 89 581 44 88 65 118 132 186 201 200 472 280 743 218z m979 -1646
c75 -39 140 -116 154 -181 8 -37 10 -320 8 -982 l-3 -930 -22 -42 c-30 -55
-84 -107 -142 -135 l-46 -23 -1140 -3 -1139 -2 -53 25 c-28 14 -72 48 -97 76
-81 90 -76 27 -76 1063 1 749 3 928 14 959 32 90 100 154 199 189 49 17 114
17 1172 15 l1120 -2 51 -27z"/>
<path d="M9377 8520 c-39 -31 -43 -70 -13 -136 32 -70 33 -109 2 -183 -27 -63
-26 -92 7 -128 15 -17 32 -23 64 -23 57 0 83 28 113 120 40 124 11 296 -58
350 -32 26 -82 25 -115 0z"/>
</g>
</svg>
